<svg width="250" height="545" viewBox="0 0 250 545" fill="none" xmlns="http://www.w3.org/2000/svg">
<mask id="mask0_1105:24272" style="mask-type:alpha" maskUnits="userSpaceOnUse" x="0" y="0" width="250" height="545">
<rect width="250" height="545" fill="#26385E"/>
</mask>
<g mask="url(#mask0_1105:24272)">
<path d="M851.273 -571.488C851.273 -571.488 823.091 -289.447 532.751 -319.685C242.411 -349.922 201.087 -138.563 231.02 -1.00269C260.953 136.558 272.41 582.829 -269.64 593.911" stroke="#384F9D" stroke-width="3" stroke-miterlimit="10"/>
<path d="M851.213 -570.501C851.213 -570.501 816.614 -291.452 528.948 -324.257C241.281 -357.062 191.465 -151.631 213.693 -1.24013C235.907 149.113 237.995 581.051 -295.933 591.399" stroke="#384F9D" stroke-width="2.9191" stroke-miterlimit="10"/>
<path d="M851.116 -569.501C851.116 -569.501 810.101 -293.444 525.131 -328.866C240.161 -364.289 181.807 -164.685 196.353 -1.5146C210.886 161.619 203.59 579.185 -322.215 588.8" stroke="#384F9D" stroke-width="2.8382" stroke-miterlimit="10"/>
<path d="M851.055 -568.514C851.055 -568.514 803.623 -295.449 521.313 -333.475C239.004 -371.502 172.184 -177.752 179.012 -1.78855C185.839 174.175 169.16 577.37 -348.559 586.266" stroke="#384F9D" stroke-width="2.7573" stroke-miterlimit="10"/>
<path d="M850.957 -567.514C850.957 -567.514 797.072 -297.428 517.496 -338.085C237.92 -378.742 162.548 -190.856 161.671 -2.06327C160.817 186.679 134.768 575.542 -374.865 583.717" stroke="#384F9D" stroke-width="2.6765" stroke-miterlimit="10"/>
<path d="M850.898 -566.527C850.898 -566.527 790.596 -299.433 513.68 -342.694C236.777 -385.918 152.889 -203.91 144.317 -2.37447C135.745 199.161 100.363 573.676 -401.198 581.095" stroke="#384F9D" stroke-width="2.5956" stroke-miterlimit="10"/>
<path d="M850.8 -565.527C850.8 -565.527 784.081 -301.425 509.825 -347.29C235.582 -393.119 143.229 -216.964 126.939 -2.63572C110.648 211.693 65.8958 571.874 -427.542 578.56" stroke="#384F9D" stroke-width="2.5147" stroke-miterlimit="10"/>
<path d="M850.703 -564.526C850.703 -564.526 777.554 -303.453 506.008 -351.899C234.462 -400.345 133.608 -230.032 109.598 -2.90986C85.6398 224.235 31.504 570.046 -453.811 575.998" stroke="#384F9D" stroke-width="2.4338" stroke-miterlimit="10"/>
<path d="M850.642 -563.54C850.642 -563.54 771.078 -305.459 502.205 -356.472C233.332 -407.485 123.985 -243.099 92.3083 -3.16107C60.6312 236.777 -2.88813 568.217 -480.118 573.449" stroke="#384F9D" stroke-width="2.3529" stroke-miterlimit="10"/>
<path d="M850.545 -562.539C850.545 -562.539 764.564 -307.45 498.388 -361.081C232.161 -414.735 114.326 -256.153 74.9676 -3.43508C35.572 249.296 -37.2801 566.388 -506.424 570.901" stroke="#384F9D" stroke-width="2.2721" stroke-miterlimit="10"/>
<path d="M850.485 -561.552C850.485 -561.552 758.087 -309.456 494.571 -365.69C231.041 -421.962 104.704 -269.22 57.6272 -3.70945C10.4996 261.778 -71.7223 564.536 -532.78 568.33" stroke="#384F9D" stroke-width="2.1912" stroke-miterlimit="10"/>
<path d="M850.388 -560.553C850.388 -560.553 751.574 -311.448 490.754 -370.3C229.897 -429.138 95.0687 -282.325 40.2867 -3.98424C-14.5088 274.32 -106.114 562.707 -559.049 565.767" stroke="#384F9D" stroke-width="2.1103" stroke-miterlimit="10"/>
<path d="M850.276 -559.589C850.276 -559.589 745.046 -313.476 486.886 -374.932C228.726 -436.389 85.3956 -295.416 22.8951 -4.28203C-39.6054 286.852 -140.594 560.869 -585.444 563.209" stroke="#384F9D" stroke-width="2.0294" stroke-miterlimit="10"/>
<path d="M850.216 -558.603C850.216 -558.603 738.569 -315.482 483.069 -379.542C227.569 -443.602 75.7369 -308.47 5.55491 -4.55671C-64.627 299.357 -174.986 559.04 -611.749 560.66" stroke="#384F9D" stroke-width="1.9485" stroke-miterlimit="10"/>
<path d="M850.119 -557.602C850.119 -557.602 732.056 -317.473 479.252 -384.151C226.449 -450.829 66.1012 -321.574 -11.7992 -4.86772C-89.6862 311.876 -209.378 557.211 -638.056 558.112" stroke="#384F9D" stroke-width="1.8677" stroke-miterlimit="10"/>
<path d="M850.058 -556.615C850.058 -556.615 725.578 -319.479 475.448 -388.723C225.304 -458.005 56.4917 -334.605 -29.1272 -5.10531C-114.746 324.394 -243.821 555.359 -664.376 555.527" stroke="#384F9D" stroke-width="1.7868" stroke-miterlimit="10"/>
<path d="M849.961 -555.615C849.961 -555.615 719.065 -321.47 471.631 -393.333C224.198 -465.195 46.8329 -347.659 -46.4675 -5.3797C-139.768 336.899 -278.213 553.531 -690.682 552.979" stroke="#384F9D" stroke-width="1.7059" stroke-miterlimit="10"/>
<path d="M849.9 -554.629C849.9 -554.629 712.588 -323.476 467.814 -397.942C223.041 -472.409 37.2105 -360.726 -63.8084 -5.65429C-164.827 349.418 -312.642 551.715 -717.002 550.393" stroke="#384F9D" stroke-width="1.625" stroke-miterlimit="10"/>
<path d="M849.804 -553.628C849.804 -553.628 706.075 -325.468 463.998 -402.551C221.884 -479.622 27.5755 -373.831 -81.1484 -5.92857C-189.872 361.973 -347.034 549.887 -743.308 547.845" stroke="#384F9D" stroke-width="1.5441" stroke-miterlimit="10"/>
<path d="M849.706 -552.628C849.706 -552.628 699.56 -327.459 460.143 -407.147C220.726 -486.835 17.9159 -386.884 -98.4894 -6.20285C-214.932 374.492 -381.477 548.034 -769.615 545.296" stroke="#384F9D" stroke-width="1.4632" stroke-miterlimit="10"/>
<path d="M849.645 -551.641C849.645 -551.641 693.083 -329.464 456.326 -411.756C219.569 -494.048 8.25666 -399.938 -115.867 -6.46368C-239.991 387.011 -415.906 546.219 -795.958 542.762" stroke="#384F9D" stroke-width="1.3823" stroke-miterlimit="10"/>
<path d="M849.548 -550.641C849.548 -550.641 686.569 -331.456 452.522 -416.329C218.475 -501.201 -1.36588 -413.006 -133.158 -6.71465C-265.013 399.516 -450.298 544.391 -822.278 540.176" stroke="#384F9D" stroke-width="1.3015" stroke-miterlimit="10"/>
<path d="M849.488 -549.654C849.488 -549.654 680.093 -333.461 448.706 -420.938C217.319 -508.415 -10.9875 -426.073 -150.511 -7.02593C-290.072 412.035 -484.74 542.539 -848.584 537.628" stroke="#384F9D" stroke-width="1.2206" stroke-miterlimit="10"/>
<path d="M849.39 -548.654C849.39 -548.654 673.579 -335.453 444.889 -425.548C216.198 -515.642 -20.6469 -439.127 -167.852 -7.3006C-315.057 424.526 -519.132 540.71 -874.853 535.066" stroke="#384F9D" stroke-width="1.1397" stroke-miterlimit="10"/>
<path d="M849.293 -547.654C849.293 -547.654 667.065 -337.446 441.034 -430.144C215.004 -522.842 -30.3197 -452.218 -185.23 -7.56179C-340.14 437.095 -553.562 538.894 -901.21 532.494" stroke="#384F9D" stroke-width="1.0588" stroke-miterlimit="10"/>
<path d="M849.233 -546.667C849.233 -546.667 660.589 -339.451 437.218 -434.753C213.884 -530.068 -39.9415 -465.286 -202.57 -7.83587C-365.199 449.614 -587.954 537.066 -927.553 529.959" stroke="#384F9D" stroke-width="0.9779" stroke-miterlimit="10"/>
<path d="M849.135 -545.667C849.135 -545.667 654.074 -341.442 433.4 -439.362C212.726 -537.282 -49.5641 -478.353 -219.911 -8.11044C-390.258 462.132 -622.396 535.214 -953.86 527.411" stroke="#384F9D" stroke-width="0.8971" stroke-miterlimit="10"/>
<path d="M849.062 -544.717C849.062 -544.717 647.584 -343.485 429.57 -444.009C211.606 -544.509 -59.2363 -491.444 -237.265 -8.42188C-415.294 474.6 -656.802 533.348 -980.193 524.788" stroke="#384F9D" stroke-width="0.8162" stroke-miterlimit="10"/>
<path d="M848.965 -543.716C848.965 -543.716 641.071 -345.476 425.767 -448.581C210.463 -551.685 -68.8583 -504.511 -254.592 -8.65902C-440.326 487.193 -691.217 531.57 -1006.49 522.277" stroke="#384F9D" stroke-width="0.7353" stroke-miterlimit="10"/>
<path d="M848.867 -542.716C848.867 -542.716 634.556 -347.468 421.912 -453.177C209.268 -558.885 -78.518 -517.565 -271.97 -8.92013C-465.422 499.725 -725.647 529.755 -1032.83 519.742" stroke="#384F9D" stroke-width="0.6544" stroke-miterlimit="10"/>
<path d="M848.806 -541.73C848.806 -541.73 628.08 -349.474 418.132 -457.8C208.185 -566.125 -88.1401 -530.633 -289.274 -9.20811C-490.407 512.217 -760.052 527.889 -1059.11 517.143" stroke="#384F9D" stroke-width="0.5735" stroke-miterlimit="10"/>
<path d="M848.709 -540.729C848.709 -540.729 621.566 -351.465 414.279 -462.395C206.991 -573.325 -97.8124 -543.724 -306.665 -9.50592C-515.466 524.735 -794.481 526.074 -1085.45 514.608" stroke="#384F9D" stroke-width="0.4926" stroke-miterlimit="10"/>
<path d="M848.649 -539.743C848.649 -539.743 615.089 -353.471 410.461 -467.005C205.884 -580.515 -107.435 -556.791 -324.005 -9.7804C-540.576 537.23 -828.924 524.221 -1111.77 512.023" stroke="#384F9D" stroke-width="0.4118" stroke-miterlimit="10"/>
<path d="M848.551 -538.742C848.551 -538.742 608.576 -355.462 406.644 -471.614C204.713 -587.765 -117.057 -569.858 -341.346 -10.0546C-565.635 549.749 -863.316 522.393 -1138.08 509.475" stroke="#384F9D" stroke-width="0.3309" stroke-miterlimit="10"/>
<path d="M848.491 -537.756C848.491 -537.756 602.061 -357.454 402.827 -476.223C203.593 -594.992 -126.73 -582.95 -358.687 -10.3292C-590.644 562.291 -897.722 520.527 -1164.4 506.889" stroke="#384F9D" stroke-width="0.25" stroke-miterlimit="10"/>
</g>
</svg>
