<svg width="556" height="499" viewBox="0 0 556 499" fill="none" xmlns="http://www.w3.org/2000/svg">
<mask id="mask0_1105:24271" style="mask-type:alpha" maskUnits="userSpaceOnUse" x="0" y="0" width="556" height="499">
<rect width="556" height="499" fill="#26385E"/>
</mask>
<g mask="url(#mask0_1105:24271)">
<path d="M-600.86 1195.54C-600.86 1195.54 -572.678 913.497 -282.338 943.735C8.00159 973.973 49.3256 762.614 19.3929 625.053C-10.5399 487.492 -21.9972 41.2212 520.053 30.1397" stroke="#384F9D" stroke-width="3" stroke-miterlimit="10"/>
<path d="M-600.8 1194.55C-600.8 1194.55 -566.201 915.503 -278.534 948.307C9.13199 981.112 58.9479 775.681 36.7201 625.29C14.5058 474.937 12.4185 42.9993 546.346 32.6511" stroke="#384F9D" stroke-width="2.9191" stroke-miterlimit="10"/>
<path d="M-600.703 1193.55C-600.703 1193.55 -559.688 917.494 -274.718 952.917C10.2517 988.339 68.6065 788.735 54.0602 625.565C39.5274 462.432 46.8235 44.8651 572.628 35.2501" stroke="#384F9D" stroke-width="2.8382" stroke-miterlimit="10"/>
<path d="M-600.642 1192.56C-600.642 1192.56 -553.21 919.499 -270.9 957.526C11.4095 995.552 78.2293 801.802 71.4015 625.839C64.5737 449.876 81.2531 46.6799 598.972 37.7845" stroke="#384F9D" stroke-width="2.7573" stroke-miterlimit="10"/>
<path d="M-600.544 1191.56C-600.544 1191.56 -546.659 921.478 -267.083 962.135C12.493 1002.79 87.8651 814.907 88.7423 626.114C89.5959 437.371 115.645 48.5087 625.279 40.3331" stroke="#384F9D" stroke-width="2.6765" stroke-miterlimit="10"/>
<path d="M-600.485 1190.58C-600.485 1190.58 -540.183 923.483 -263.267 966.744C13.6362 1009.97 97.5238 827.96 106.096 626.425C114.668 424.889 150.05 50.3742 651.611 42.9554" stroke="#384F9D" stroke-width="2.5956" stroke-miterlimit="10"/>
<path d="M-600.387 1189.58C-600.387 1189.58 -533.668 925.475 -259.412 971.34C14.8312 1017.17 107.184 841.015 123.474 626.686C139.765 412.357 184.517 52.1762 677.955 45.4906" stroke="#384F9D" stroke-width="2.5147" stroke-miterlimit="10"/>
<path d="M-600.29 1188.58C-600.29 1188.58 -527.141 927.504 -255.595 975.949C15.9511 1024.4 116.806 854.082 140.815 626.96C164.773 399.815 218.909 54.0045 704.224 48.0521" stroke="#384F9D" stroke-width="2.4338" stroke-miterlimit="10"/>
<path d="M-600.229 1187.59C-600.229 1187.59 -520.665 929.509 -251.792 980.522C17.0815 1031.54 126.428 867.15 158.105 627.211C189.782 387.273 253.301 55.8336 730.531 50.6008" stroke="#384F9D" stroke-width="2.3529" stroke-miterlimit="10"/>
<path d="M-600.132 1186.59C-600.132 1186.59 -514.151 931.501 -247.975 985.131C18.2521 1038.79 136.087 880.203 175.445 627.485C214.841 374.754 287.693 57.6619 756.837 53.1488" stroke="#384F9D" stroke-width="2.2721" stroke-miterlimit="10"/>
<path d="M-600.072 1185.6C-600.072 1185.6 -507.674 933.506 -244.158 989.74C19.3722 1046.01 145.709 893.271 192.786 627.76C239.913 362.272 322.135 59.5141 783.193 55.7207" stroke="#384F9D" stroke-width="2.1912" stroke-miterlimit="10"/>
<path d="M-599.974 1184.6C-599.974 1184.6 -501.161 935.498 -240.341 994.35C20.5158 1053.19 155.344 906.375 210.126 628.035C264.922 349.731 356.527 61.343 809.462 58.2829" stroke="#384F9D" stroke-width="2.1103" stroke-miterlimit="10"/>
<path d="M-599.863 1183.64C-599.863 1183.64 -494.633 937.527 -236.473 998.983C21.687 1060.44 165.017 919.466 227.518 628.332C290.019 337.198 391.007 63.1816 835.857 60.8412" stroke="#384F9D" stroke-width="2.0294" stroke-miterlimit="10"/>
<path d="M-599.803 1182.65C-599.803 1182.65 -488.156 939.532 -232.656 1003.59C22.8439 1067.65 174.676 932.52 244.858 628.607C315.04 324.694 425.399 65.0105 862.163 63.3898" stroke="#384F9D" stroke-width="1.9485" stroke-miterlimit="10"/>
<path d="M-599.706 1181.65C-599.706 1181.65 -481.643 941.523 -228.839 1008.2C23.9641 1074.88 184.312 945.624 262.212 628.918C340.099 312.175 459.791 66.8388 888.469 65.9379" stroke="#384F9D" stroke-width="1.8677" stroke-miterlimit="10"/>
<path d="M-599.645 1180.67C-599.645 1180.67 -475.165 943.529 -225.035 1012.77C25.1086 1082.06 193.921 958.655 279.54 629.156C365.159 299.656 494.234 68.6913 914.789 68.5235" stroke="#384F9D" stroke-width="1.7868" stroke-miterlimit="10"/>
<path d="M-599.548 1179.67C-599.548 1179.67 -468.652 945.521 -221.218 1017.38C26.215 1089.25 203.58 971.709 296.881 629.43C390.181 287.151 528.626 70.5198 941.095 71.0717" stroke="#384F9D" stroke-width="1.7059" stroke-miterlimit="10"/>
<path d="M-599.487 1178.68C-599.487 1178.68 -462.175 947.526 -217.401 1021.99C27.3725 1096.46 213.203 984.777 314.221 629.705C415.24 274.633 563.056 72.3352 967.415 73.6574" stroke="#384F9D" stroke-width="1.625" stroke-miterlimit="10"/>
<path d="M-599.391 1177.68C-599.391 1177.68 -455.661 949.518 -213.585 1026.6C28.5291 1103.67 222.838 997.881 331.561 629.979C440.285 262.077 597.447 74.1637 993.721 76.2056" stroke="#384F9D" stroke-width="1.5441" stroke-miterlimit="10"/>
<path d="M-599.293 1176.68C-599.293 1176.68 -449.147 951.51 -209.73 1031.2C29.6868 1110.89 232.497 1010.93 348.902 630.253C465.345 249.558 631.89 76.0158 1020.03 78.7539" stroke="#384F9D" stroke-width="1.4632" stroke-miterlimit="10"/>
<path d="M-599.232 1175.69C-599.232 1175.69 -442.67 953.515 -205.913 1035.81C30.8441 1118.1 242.156 1023.99 366.28 630.514C490.404 237.039 666.319 77.8309 1046.37 81.2886" stroke="#384F9D" stroke-width="1.3823" stroke-miterlimit="10"/>
<path d="M-599.135 1174.69C-599.135 1174.69 -436.156 955.507 -202.109 1040.38C31.9378 1125.25 251.779 1037.06 383.571 630.765C515.427 224.534 700.711 79.6596 1072.69 83.8741" stroke="#384F9D" stroke-width="1.3015" stroke-miterlimit="10"/>
<path d="M-599.075 1173.7C-599.075 1173.7 -429.68 957.512 -198.293 1044.99C33.0945 1132.46 261.401 1050.12 400.924 631.076C540.485 212.016 735.153 81.5117 1099 86.4224" stroke="#384F9D" stroke-width="1.2206" stroke-miterlimit="10"/>
<path d="M-598.977 1172.7C-598.977 1172.7 -423.166 959.504 -194.475 1049.6C34.2149 1139.69 271.06 1063.18 418.265 631.351C565.47 199.524 769.546 83.3406 1125.27 88.9845" stroke="#384F9D" stroke-width="1.1397" stroke-miterlimit="10"/>
<path d="M-598.88 1171.7C-598.88 1171.7 -416.652 961.496 -190.621 1054.19C35.4093 1146.89 280.733 1076.27 435.643 631.612C590.553 186.955 803.975 85.156 1151.62 91.5566" stroke="#384F9D" stroke-width="1.0588" stroke-miterlimit="10"/>
<path d="M-598.82 1170.72C-598.82 1170.72 -410.175 963.501 -186.805 1058.8C36.5292 1154.12 290.355 1089.34 452.983 631.886C615.612 174.436 838.367 86.9843 1177.97 94.0912" stroke="#384F9D" stroke-width="0.9779" stroke-miterlimit="10"/>
<path d="M-598.722 1169.72C-598.722 1169.72 -403.661 965.493 -182.987 1063.41C37.6868 1161.33 299.977 1102.4 470.324 632.161C640.672 161.918 872.81 88.8367 1204.27 96.6397" stroke="#384F9D" stroke-width="0.8971" stroke-miterlimit="10"/>
<path d="M-598.649 1168.77C-598.649 1168.77 -397.171 967.535 -179.157 1068.06C38.8067 1168.56 309.649 1115.49 487.678 632.472C665.707 149.45 907.215 90.7024 1230.61 99.2622" stroke="#384F9D" stroke-width="0.8162" stroke-miterlimit="10"/>
<path d="M-598.551 1167.77C-598.551 1167.77 -390.658 969.526 -175.354 1072.63C39.9502 1175.74 319.271 1128.56 505.005 632.709C690.739 136.857 941.63 92.4803 1256.9 101.773" stroke="#384F9D" stroke-width="0.7353" stroke-miterlimit="10"/>
<path d="M-598.453 1166.77C-598.453 1166.77 -384.143 971.519 -171.499 1077.23C41.1452 1182.94 328.931 1141.62 522.383 632.97C715.835 124.325 976.06 94.2956 1283.24 104.308" stroke="#384F9D" stroke-width="0.6544" stroke-miterlimit="10"/>
<path d="M-598.393 1165.78C-598.393 1165.78 -377.667 973.524 -167.719 1081.85C42.2283 1190.18 338.553 1154.68 539.687 633.258C740.82 111.834 1010.47 96.1614 1309.53 106.907" stroke="#384F9D" stroke-width="0.5735" stroke-miterlimit="10"/>
<path d="M-598.296 1164.78C-598.296 1164.78 -371.153 975.516 -163.866 1086.45C43.4222 1197.38 348.226 1167.77 557.078 633.556C765.879 99.3149 1044.89 97.9765 1335.87 109.442" stroke="#384F9D" stroke-width="0.4926" stroke-miterlimit="10"/>
<path d="M-598.236 1163.79C-598.236 1163.79 -364.676 977.521 -160.048 1091.05C44.5291 1204.57 357.848 1180.84 574.418 633.831C790.989 86.8199 1079.34 99.8288 1362.19 112.028" stroke="#384F9D" stroke-width="0.4118" stroke-miterlimit="10"/>
<path d="M-598.138 1162.79C-598.138 1162.79 -358.162 979.512 -156.231 1095.66C45.6998 1211.82 367.47 1193.91 591.759 634.105C816.048 74.3011 1113.73 101.657 1388.49 114.576" stroke="#384F9D" stroke-width="0.3309" stroke-miterlimit="10"/>
<path d="M-598.078 1161.81C-598.078 1161.81 -351.648 981.504 -152.414 1100.27C46.8205 1219.04 377.143 1207 609.1 634.379C841.057 61.7591 1148.13 103.523 1414.81 117.161" stroke="#384F9D" stroke-width="0.25" stroke-miterlimit="10"/>
</g>
</svg>
