<svg width="30" height="31" viewBox="0 0 30 31" fill="none" xmlns="http://www.w3.org/2000/svg">
<path opacity="0.35" d="M3.85765 10.0831C4.13515 12.1493 5.2214 16.8981 9.5039 21.1806C13.7864 25.4631 18.5339 26.5493 20.6014 26.8268C22.0989 27.1506 23.7227 26.7393 24.8864 25.5756C26.7064 23.7556 20.1139 17.1631 18.2939 18.9831L17.1327 20.1443L10.5402 13.5518L11.7014 12.3906C13.5214 10.5706 6.9289 3.97808 5.1089 5.79808C3.9439 6.96183 3.53265 8.58558 3.85765 10.0831Z" fill="#FF344C"/>
<path d="M5.11108 5.79449L11.7023 12.3857C13.5186 10.5645 13.5186 7.61699 11.6986 5.79699C9.88108 3.97949 6.93233 3.97824 5.11108 5.79449Z" fill="#FF344C"/>
<path d="M18.2964 18.9791L24.8876 25.5703C26.7039 23.7503 26.7039 20.8016 24.8839 18.9816C23.0651 17.1641 20.1176 17.1628 18.2964 18.9791Z" fill="#FF344C"/>
</svg>
