<svg width="314" height="282" viewBox="0 0 314 282" fill="none" xmlns="http://www.w3.org/2000/svg">
<mask id="mask0_1112:24207" style="mask-type:alpha" maskUnits="userSpaceOnUse" x="0" y="0" width="314" height="282">
<rect width="314" height="282" fill="#1F3584"/>
</mask>
<g mask="url(#mask0_1112:24207)">
<path d="M-390.375 424.247C-390.375 424.247 -324.37 284.949 -188.527 351.668C-52.6837 418.386 6.62275 317.564 17.5362 241.914C28.4496 166.263 105.582 -64.0406 371.712 25.9743" stroke="#394F99" stroke-width="1.4" stroke-miterlimit="10"/>
<path d="M-390.162 423.753C-390.162 423.753 -321.586 287.118 -187.521 354.678C-53.456 422.238 8.88876 325.947 25.9339 245.094C42.9788 164.262 122.019 -57.0561 384.056 31.9001" stroke="#394F99" stroke-width="1.4" stroke-miterlimit="10"/>
<path d="M-389.93 423.259C-389.93 423.259 -318.783 289.287 -186.516 357.71C-54.2501 426.132 11.1747 334.33 34.3307 248.295C57.4864 162.282 138.435 -50.028 396.378 37.8694" stroke="#394F99" stroke-width="1.4" stroke-miterlimit="10"/>
<path d="M-389.717 422.764C-389.717 422.764 -315.999 291.455 -185.511 360.741C-55.0229 430.026 13.4408 342.712 42.7282 251.496C72.0156 160.28 154.872 -43.0225 408.743 43.8157" stroke="#394F99" stroke-width="1.4" stroke-miterlimit="10"/>
<path d="M-389.484 422.27C-389.484 422.27 -313.174 293.624 -184.505 363.773C-55.837 433.921 15.7064 351.117 51.1255 254.698C86.5238 158.301 171.288 -36.0157 421.086 49.7633" stroke="#394F99" stroke-width="1.4" stroke-miterlimit="10"/>
<path d="M-389.272 421.775C-389.272 421.775 -310.39 295.793 -183.5 366.804C-56.6101 437.794 17.9925 359.499 59.5222 257.92C101.052 156.342 187.704 -28.9885 433.429 55.7527" stroke="#394F99" stroke-width="1.4" stroke-miterlimit="10"/>
<path d="M-389.039 421.281C-389.039 421.281 -307.586 297.961 -182.474 369.835C-57.3626 441.688 20.2788 367.881 67.9399 261.121C115.601 154.361 204.161 -21.983 445.793 61.6994" stroke="#394F99" stroke-width="1.4" stroke-miterlimit="10"/>
<path d="M-388.807 420.787C-388.807 420.787 -304.782 300.152 -181.469 372.867C-58.1564 445.582 22.5446 376.265 76.3371 264.323C130.109 152.36 220.577 -14.9763 458.117 67.6473" stroke="#394F99" stroke-width="1.4" stroke-miterlimit="10"/>
<path d="M-388.595 420.293C-388.595 420.293 -301.998 302.321 -180.464 375.878C-58.9291 449.434 24.8101 384.648 84.7138 267.504C144.617 150.359 236.993 -7.96968 470.46 73.5948" stroke="#394F99" stroke-width="1.4" stroke-miterlimit="10"/>
<path d="M-388.361 419.798C-388.361 419.798 -299.194 304.489 -179.458 378.909C-59.702 453.349 27.097 393.03 93.1116 270.704C159.147 148.379 253.41 -0.964028 482.804 79.5413" stroke="#394F99" stroke-width="1.4" stroke-miterlimit="10"/>
<path d="M-388.149 419.304C-388.149 419.304 -296.41 306.658 -178.453 381.94C-60.4962 457.244 29.3624 401.413 101.508 273.906C173.674 146.42 269.846 6.06351 495.167 85.5097" stroke="#394F99" stroke-width="1.4" stroke-miterlimit="10"/>
<path d="M-387.917 418.809C-387.917 418.809 -293.606 308.827 -177.448 384.972C-61.2695 461.117 31.6274 409.817 109.905 277.107C188.182 144.419 286.262 13.07 507.49 91.4573" stroke="#394F99" stroke-width="1.4" stroke-miterlimit="10"/>
<path d="M-387.684 418.336C-387.684 418.336 -290.802 311.017 -176.422 388.025C-62.0426 465.032 33.9137 418.221 118.323 280.33C202.732 142.438 302.719 20.0968 519.875 97.425" stroke="#394F99" stroke-width="1.4" stroke-miterlimit="10"/>
<path d="M-387.472 417.842C-387.472 417.842 -288.019 313.187 -175.417 391.057C-62.8159 468.927 36.1998 426.604 126.72 283.531C217.24 140.459 319.135 27.1036 532.218 103.373" stroke="#394F99" stroke-width="1.4" stroke-miterlimit="10"/>
<path d="M-387.239 417.347C-387.239 417.347 -285.214 315.354 -174.412 394.087C-63.6094 472.82 38.4655 435.007 135.117 286.753C231.768 138.478 335.551 34.1089 544.562 109.319" stroke="#394F99" stroke-width="1.4" stroke-miterlimit="10"/>
<path d="M-387.026 416.854C-387.026 416.854 -282.43 317.524 -173.406 397.099C-64.3821 476.694 40.7317 443.37 143.514 289.934C246.297 136.499 351.988 41.1373 556.905 115.288" stroke="#394F99" stroke-width="1.4" stroke-miterlimit="10"/>
<path d="M-386.793 416.358C-386.793 416.358 -279.626 319.692 -172.4 400.129C-65.1751 480.566 43.0184 451.751 151.912 293.135C260.806 134.518 368.405 48.1426 569.249 121.235" stroke="#394F99" stroke-width="1.4" stroke-miterlimit="10"/>
<path d="M-386.581 415.864C-386.581 415.864 -276.842 321.861 -171.395 403.161C-65.9485 484.46 45.2839 460.134 160.309 296.336C275.334 132.538 384.841 55.1486 581.592 127.203" stroke="#394F99" stroke-width="1.4" stroke-miterlimit="10"/>
<path d="M-386.349 415.37C-386.349 415.37 -274.038 324.03 -170.39 406.193C-66.722 488.355 47.5491 468.539 168.706 299.538C289.863 130.536 401.257 62.1554 593.936 133.151" stroke="#394F99" stroke-width="1.4" stroke-miterlimit="10"/>
<path d="M-386.116 414.876C-386.116 414.876 -271.234 326.2 -169.365 409.225C-67.4951 492.25 49.8354 476.922 177.103 302.74C304.391 128.557 417.693 69.1834 606.279 139.099" stroke="#394F99" stroke-width="1.4" stroke-miterlimit="10"/>
<path d="M-385.903 414.381C-385.903 414.381 -268.45 328.368 -168.359 412.255C-68.268 496.143 52.1219 485.304 185.521 305.94C318.92 126.576 434.131 76.1882 618.644 145.044" stroke="#394F99" stroke-width="1.4" stroke-miterlimit="10"/>
<path d="M-385.67 413.887C-385.67 413.887 -265.646 330.537 -167.353 415.266C-69.0608 499.995 54.388 493.687 193.898 309.121C333.428 124.596 450.547 83.1951 630.987 151.013" stroke="#394F99" stroke-width="1.4" stroke-miterlimit="10"/>
<path d="M-385.459 413.393C-385.459 413.393 -262.863 332.706 -166.349 418.298C-69.8348 503.89 56.653 502.07 202.294 312.344C347.956 122.617 466.983 90.2228 643.33 156.961" stroke="#394F99" stroke-width="1.4" stroke-miterlimit="10"/>
<path d="M-385.225 412.899C-385.225 412.899 -260.058 334.875 -165.343 421.329C-70.6281 507.784 58.9397 510.453 210.692 315.545C362.444 120.637 483.399 97.2289 655.653 162.908" stroke="#394F99" stroke-width="1.4" stroke-miterlimit="10"/>
<path d="M-384.993 412.404C-384.993 412.404 -257.254 337.043 -164.317 424.361C-71.3807 511.678 61.2257 518.857 219.11 318.746C376.993 118.635 499.836 104.235 668.017 168.876" stroke="#394F99" stroke-width="1.4" stroke-miterlimit="10"/>
<path d="M-384.781 411.911C-384.781 411.911 -254.47 339.213 -163.312 427.393C-72.1747 515.573 63.4912 527.24 227.506 321.948C391.522 116.655 516.252 111.242 680.381 174.824" stroke="#394F99" stroke-width="1.4" stroke-miterlimit="10"/>
<path d="M-384.548 411.417C-384.548 411.417 -251.666 341.382 -162.307 430.425C-72.9478 519.467 65.757 535.623 235.904 325.149C406.05 114.676 532.689 118.269 692.725 180.771" stroke="#394F99" stroke-width="1.4" stroke-miterlimit="10"/>
<path d="M-384.335 410.943C-384.335 410.943 -248.882 343.572 -161.302 433.477C-73.7413 523.361 68.0432 544.027 244.301 328.372C420.558 112.717 549.105 125.297 705.068 186.761" stroke="#394F99" stroke-width="1.4" stroke-miterlimit="10"/>
<path d="M-384.103 410.449C-384.103 410.449 -246.078 345.74 -160.296 436.487C-74.5143 527.234 70.3088 552.409 252.698 331.551C435.087 110.693 565.541 132.281 717.412 192.686" stroke="#394F99" stroke-width="1.4" stroke-miterlimit="10"/>
<path d="M-383.87 409.954C-383.87 409.954 -243.274 347.909 -159.27 439.518C-75.2668 531.128 72.5951 560.792 261.116 334.752C449.636 108.713 581.978 139.287 729.776 198.633" stroke="#394F99" stroke-width="1.4" stroke-miterlimit="10"/>
<path d="M-383.658 409.46C-383.658 409.46 -240.49 350.078 -158.286 442.551C-76.081 535.023 74.8609 569.175 269.492 337.954C464.124 106.734 598.394 146.315 742.099 204.602" stroke="#394F99" stroke-width="1.4" stroke-miterlimit="10"/>
<path d="M-383.425 408.965C-383.425 408.965 -237.687 352.246 -157.26 445.581C-76.8342 538.916 77.1464 577.578 277.909 341.176C478.652 104.753 614.831 153.32 754.462 210.548" stroke="#394F99" stroke-width="1.4" stroke-miterlimit="10"/>
<path d="M-383.213 408.472C-383.213 408.472 -234.903 354.416 -156.255 448.613C-77.6273 542.79 79.4125 585.962 286.307 344.378C493.201 102.794 631.267 160.348 766.806 216.517" stroke="#394F99" stroke-width="1.4" stroke-miterlimit="10"/>
<path d="M-382.98 407.977C-382.98 407.977 -232.098 356.584 -155.25 451.644C-78.4008 546.705 81.6782 594.344 294.704 347.579C507.73 100.814 647.683 167.354 779.149 222.464" stroke="#394F99" stroke-width="1.4" stroke-miterlimit="10"/>
<path d="M-382.767 407.483C-382.767 407.483 -229.294 358.753 -154.244 454.676C-79.1942 550.6 83.9645 602.748 303.101 350.78C522.238 98.8127 664.1 174.382 791.493 228.433" stroke="#394F99" stroke-width="1.4" stroke-miterlimit="10"/>
</g>
</svg>
