<svg width="1440" height="844" viewBox="0 0 1440 844" fill="none" xmlns="http://www.w3.org/2000/svg">
<mask id="mask0_1101:25900" style="mask-type:alpha" maskUnits="userSpaceOnUse" x="0" y="0" width="1440" height="844">
<rect width="1440" height="844" fill="#1F3584"/>
</mask>
<g mask="url(#mask0_1101:25900)">
<path d="M-187.286 327.163C-187.286 327.163 15.5956 129.223 218.572 339.013C421.549 548.803 589.064 413.455 654.556 288.837C720.049 164.219 998.13 -185.009 1420.49 154.925" stroke="#384F9D" stroke-opacity="0.8" stroke-width="3" stroke-miterlimit="10"/>
<path d="M-186.605 326.446C-186.605 326.446 19.2683 134.922 218.547 344.96C417.826 554.999 588.036 429.65 667.677 300.157C747.306 170.7 1023.35 -161.525 1439.01 173.75" stroke="#384F9D" stroke-opacity="0.8" stroke-width="2.9191" stroke-miterlimit="10"/>
<path d="M-185.888 325.742C-185.888 325.742 22.9775 140.635 218.508 350.945C414.038 561.255 587.044 445.859 680.784 311.513C774.511 177.204 1048.51 -137.98 1457.48 192.635" stroke="#384F9D" stroke-opacity="0.8" stroke-width="2.8382" stroke-miterlimit="10"/>
<path d="M-185.207 325.025C-185.207 325.025 26.6504 146.334 218.47 356.929C410.289 567.524 586.016 462.054 693.892 322.87C801.769 183.685 1073.72 -114.459 1476.03 211.51" stroke="#384F9D" stroke-opacity="0.8" stroke-width="2.7573" stroke-miterlimit="10"/>
<path d="M-184.489 324.322C-184.489 324.322 30.3973 152.061 218.431 362.914C406.465 573.767 584.974 478.287 706.999 334.227C828.975 190.19 1098.89 -90.9515 1494.54 230.372" stroke="#384F9D" stroke-opacity="0.8" stroke-width="2.6765" stroke-miterlimit="10"/>
<path d="M-183.809 323.604C-183.809 323.604 34.0693 157.76 218.392 368.898C402.727 580 583.982 494.495 720.093 345.62C856.204 196.745 1124.04 -67.407 1513.03 249.307" stroke="#384F9D" stroke-opacity="0.8" stroke-width="2.5956" stroke-miterlimit="10"/>
<path d="M-183.091 322.901C-183.091 322.901 37.7792 163.473 218.39 374.896C399.015 586.283 582.99 510.704 733.238 356.99C883.485 203.276 1149.29 -43.8721 1531.58 268.182" stroke="#384F9D" stroke-opacity="0.8" stroke-width="2.5147" stroke-miterlimit="10"/>
<path d="M-182.374 322.197C-182.374 322.197 41.4752 169.223 218.351 380.881C395.227 592.539 581.962 526.899 746.345 368.347C910.704 209.744 1174.46 -20.3645 1550.06 287.03" stroke="#384F9D" stroke-opacity="0.8" stroke-width="2.4338" stroke-miterlimit="10"/>
<path d="M-181.694 321.48C-181.694 321.48 45.1475 174.922 218.326 386.828C391.504 598.735 580.933 543.094 759.428 379.653C937.924 216.211 1199.63 3.14299 1568.57 305.892" stroke="#384F9D" stroke-opacity="0.8" stroke-width="2.3529" stroke-miterlimit="10"/>
<path d="M-180.976 320.776C-180.976 320.776 48.8572 180.634 218.287 392.812C387.74 605.041 579.942 559.303 772.536 391.009C965.167 222.729 1224.8 26.6505 1587.08 324.753" stroke="#384F9D" stroke-opacity="0.8" stroke-width="2.2721" stroke-miterlimit="10"/>
<path d="M-180.295 320.059C-180.295 320.059 52.5299 186.334 218.248 398.797C383.953 611.297 578.913 575.498 785.643 402.366C992.397 229.284 1249.99 50.2085 1605.62 343.665" stroke="#384F9D" stroke-opacity="0.8" stroke-width="2.1912" stroke-miterlimit="10"/>
<path d="M-179.578 319.356C-179.578 319.356 56.2391 192.047 218.209 404.782C380.216 617.53 577.871 591.731 798.75 413.722C1019.62 235.751 1275.16 73.7162 1624.1 362.513" stroke="#384F9D" stroke-opacity="0.8" stroke-width="2.1103" stroke-miterlimit="10"/>
<path d="M-178.874 318.689C-178.874 318.689 59.9353 197.797 218.194 410.817C376.453 623.837 576.866 607.976 811.881 425.13C1046.9 242.283 1300.39 97.2879 1642.67 381.439" stroke="#384F9D" stroke-opacity="0.8" stroke-width="2.0294" stroke-miterlimit="10"/>
<path d="M-178.193 317.972C-178.193 317.972 63.6081 203.496 218.155 416.801C372.703 630.106 575.874 624.185 824.989 436.486C1074.1 248.787 1325.56 120.795 1661.19 400.3" stroke="#384F9D" stroke-opacity="0.8" stroke-width="1.9485" stroke-miterlimit="10"/>
<path d="M-177.476 317.268C-177.476 317.268 67.3173 209.208 218.116 422.785C368.915 636.362 574.832 640.417 838.082 447.879C1101.35 255.305 1350.73 144.303 1679.7 419.161" stroke="#384F9D" stroke-opacity="0.8" stroke-width="1.8677" stroke-miterlimit="10"/>
<path d="M-176.795 316.551C-176.795 316.551 70.9905 214.908 218.092 428.733C365.179 642.595 573.818 656.576 851.204 459.2C1128.59 261.823 1375.93 167.862 1698.2 438.061" stroke="#384F9D" stroke-opacity="0.8" stroke-width="1.7868" stroke-miterlimit="10"/>
<path d="M-176.077 315.848C-176.077 315.848 74.7003 220.621 218.053 434.718C361.406 648.814 572.826 672.785 864.311 470.556C1155.8 268.327 1401.1 191.369 1716.71 456.922" stroke="#384F9D" stroke-opacity="0.8" stroke-width="1.7059" stroke-miterlimit="10"/>
<path d="M-175.397 315.131C-175.397 315.131 78.3726 226.32 218.014 440.702C357.655 655.084 571.798 688.98 877.418 481.912C1183.04 274.845 1426.31 214.89 1735.21 475.821" stroke="#384F9D" stroke-opacity="0.8" stroke-width="1.625" stroke-miterlimit="10"/>
<path d="M-174.68 314.427C-174.68 314.427 82.0819 232.033 217.975 446.686C353.905 661.354 570.755 705.212 890.525 493.269C1210.3 281.326 1451.48 238.398 1753.73 494.682" stroke="#384F9D" stroke-opacity="0.8" stroke-width="1.5441" stroke-miterlimit="10"/>
<path d="M-173.962 313.723C-173.962 313.723 85.7916 237.746 217.973 452.684C350.155 667.623 569.764 721.42 903.633 504.625C1237.54 287.844 1476.67 261.956 1772.24 513.543" stroke="#384F9D" stroke-opacity="0.8" stroke-width="1.4632" stroke-miterlimit="10"/>
<path d="M-173.282 313.006C-173.282 313.006 89.464 243.445 217.934 458.669C346.405 673.893 568.772 737.629 916.777 515.996C1264.78 294.362 1501.88 285.477 1790.79 532.419" stroke="#384F9D" stroke-opacity="0.8" stroke-width="1.3823" stroke-miterlimit="10"/>
<path d="M-172.564 312.303C-172.564 312.303 93.1742 249.158 217.91 464.617C342.645 680.075 567.744 753.825 929.861 527.302C1291.99 300.866 1527.05 308.985 1809.29 551.317" stroke="#384F9D" stroke-opacity="0.8" stroke-width="1.3015" stroke-miterlimit="10"/>
<path d="M-171.884 311.585C-171.884 311.585 96.8462 254.857 217.87 470.601C338.894 686.345 566.715 770.02 942.955 538.695C1319.23 307.384 1552.24 332.542 1827.81 570.178" stroke="#384F9D" stroke-opacity="0.8" stroke-width="1.2206" stroke-miterlimit="10"/>
<path d="M-171.166 310.882C-171.166 310.882 100.556 260.57 217.832 476.586C335.107 692.601 565.724 786.229 956.062 550.052C1346.4 313.875 1577.41 356.05 1846.28 589.027" stroke="#384F9D" stroke-opacity="0.8" stroke-width="1.1397" stroke-miterlimit="10"/>
<path d="M-170.448 310.178C-170.448 310.178 104.266 266.283 217.83 482.584C331.394 698.884 564.719 802.474 969.207 561.422C1373.69 320.37 1602.62 379.571 1864.82 607.939" stroke="#384F9D" stroke-opacity="0.8" stroke-width="1.0588" stroke-miterlimit="10"/>
<path d="M-169.768 309.461C-169.768 309.461 107.938 271.982 217.791 488.568C327.607 705.14 563.69 818.669 982.314 572.778C1400.94 326.887 1627.79 403.079 1883.37 626.814" stroke="#384F9D" stroke-opacity="0.8" stroke-width="0.9779" stroke-miterlimit="10"/>
<path d="M-169.05 308.757C-169.05 308.757 111.648 277.695 217.752 494.553C323.857 711.41 562.661 834.865 995.421 584.135C1428.18 333.405 1652.98 426.637 1901.88 645.675" stroke="#384F9D" stroke-opacity="0.8" stroke-width="0.8971" stroke-miterlimit="10"/>
<path d="M-168.384 308.077C-168.384 308.077 115.306 283.431 217.7 500.574C320.069 717.666 561.656 851.11 1008.51 595.529C1455.37 339.947 1678.14 450.182 1920.37 664.611" stroke="#384F9D" stroke-opacity="0.8" stroke-width="0.8162" stroke-miterlimit="10"/>
<path d="M-167.666 307.373C-167.666 307.373 119.016 289.144 217.674 506.521C316.332 723.898 560.627 867.305 1021.64 606.848C1482.64 346.39 1703.36 473.666 1938.9 683.435" stroke="#384F9D" stroke-opacity="0.8" stroke-width="0.7353" stroke-miterlimit="10"/>
<path d="M-166.948 306.67C-166.948 306.67 122.726 294.857 217.673 512.519C312.62 730.182 559.636 883.514 1034.78 618.218C1509.92 352.922 1728.57 497.187 1957.45 702.31" stroke="#384F9D" stroke-opacity="0.8" stroke-width="0.6544" stroke-miterlimit="10"/>
<path d="M-166.268 305.953C-166.268 305.953 126.398 300.556 217.597 518.49C308.795 736.425 558.608 899.71 1047.85 629.561C1537.09 359.413 1753.73 520.732 1975.91 721.195" stroke="#384F9D" stroke-opacity="0.8" stroke-width="0.5735" stroke-miterlimit="10"/>
<path d="M-165.55 305.249C-165.55 305.249 130.108 306.269 217.595 524.488C305.082 742.707 557.603 915.955 1060.98 640.968C1564.34 365.931 1778.93 544.252 1994.46 740.07" stroke="#384F9D" stroke-opacity="0.8" stroke-width="0.4926" stroke-miterlimit="10"/>
<path d="M-164.87 304.532C-164.87 304.532 133.781 311.969 217.556 530.473C301.309 748.927 556.574 932.151 1074.09 652.325C1591.6 372.499 1804.13 567.811 2012.96 758.969" stroke="#384F9D" stroke-opacity="0.8" stroke-width="0.4118" stroke-miterlimit="10"/>
<path d="M-164.152 303.828C-164.152 303.828 137.49 317.681 217.518 536.457C297.545 755.233 555.546 948.346 1087.2 663.681C1618.85 379.017 1829.3 591.318 2031.48 777.83" stroke="#384F9D" stroke-opacity="0.8" stroke-width="0.3309" stroke-miterlimit="10"/>
<path d="M-163.472 303.111C-163.472 303.111 141.2 323.394 217.479 542.442C293.758 761.49 554.54 964.592 1100.3 675.038C1646.07 385.485 1854.46 614.863 2049.98 796.729" stroke="#384F9D" stroke-opacity="0.8" stroke-width="0.25" stroke-miterlimit="10"/>
</g>
</svg>
