<svg width="204" height="33" viewBox="0 0 204 33" fill="none" xmlns="http://www.w3.org/2000/svg">
<path d="M3.33228 6.59772C3.33228 4.44737 5.08218 2.70416 7.2408 2.70416H37.3081C39.4667 2.70416 41.2166 4.44737 41.2166 6.59772V25.3985C41.2166 27.5488 39.4667 29.2921 37.3081 29.2921H7.24081C5.08219 29.2921 3.33228 27.5488 3.33228 25.3985V6.59772Z" fill="white"/>
<path fill-rule="evenodd" clip-rule="evenodd" d="M7.24092 0.200256H37.3082C40.855 0.200256 43.7302 3.0645 43.7302 6.59772V25.3985C43.7302 28.9317 40.855 31.796 37.3082 31.796H7.24092C3.69411 31.796 0.818848 28.9317 0.818848 25.3985V6.59773C0.818848 3.06451 3.6941 0.200256 7.24092 0.200256ZM7.24092 2.70417C5.0823 2.70417 3.33239 4.44738 3.33239 6.59773V25.3985C3.33239 27.5489 5.0823 29.2921 7.24092 29.2921H37.3082C39.4668 29.2921 41.2167 27.5489 41.2167 25.3985V6.59772C41.2167 4.44737 39.4668 2.70417 37.3082 2.70417H7.24092Z" fill="white"/>
<path d="M19.3904 2.70416H37.308C39.4666 2.70416 41.2166 4.44736 41.2166 6.59772V9.40461H19.3904V2.70416Z" fill="#FF344C"/>
<path d="M19.3904 12.6478H41.2166V19.3483H19.3904V12.6478Z" fill="#FF344C"/>
<path d="M3.33228 22.5917H41.2166V25.3986C41.2166 27.5489 39.4667 29.2921 37.308 29.2921H7.2408C5.08218 29.2921 3.33228 27.5489 3.33228 25.3986V22.5917Z" fill="#FF344C"/>
<path d="M3.26221 6.64783C3.26221 4.49748 5.01211 2.75427 7.17074 2.75427H20.1913V19.3984H3.26221V6.64783Z" fill="#1F3584"/>
<path fill-rule="evenodd" clip-rule="evenodd" d="M11.2437 6.86859C11.3612 6.64832 11.591 6.51019 11.8416 6.51019C12.0922 6.51019 12.3221 6.64832 12.4396 6.86859L13.5742 9.00014C13.5871 9.02492 13.606 9.04603 13.6285 9.06255C13.6511 9.07907 13.6774 9.09009 13.705 9.09467L16.0903 9.51089C16.3372 9.55403 16.5394 9.72932 16.6173 9.96657C16.6947 10.2038 16.6343 10.4645 16.4597 10.6439L14.7756 12.3776C14.7562 12.3978 14.7415 12.4221 14.7327 12.4483C14.724 12.4749 14.7217 12.5029 14.7254 12.5309L15.0649 14.9194C15.0999 15.1663 14.9953 15.4127 14.7926 15.5595C14.5899 15.7064 14.3227 15.7293 14.0975 15.6197L11.9223 14.5596C11.8974 14.5472 11.8697 14.5408 11.8416 14.5408C11.8135 14.5408 11.7859 14.5472 11.7606 14.5592L9.58534 15.6192C9.36008 15.7289 9.09289 15.7055 8.89021 15.5591C8.68752 15.4122 8.58295 15.1663 8.61796 14.9189L8.95746 12.5304C8.96161 12.5029 8.95884 12.4744 8.95009 12.4478C8.94134 12.4212 8.92706 12.3969 8.90725 12.3771L7.22309 10.6434C7.04896 10.464 6.98815 10.2034 7.06554 9.96611C7.14293 9.72886 7.34562 9.55357 7.59253 9.51043L9.97782 9.09422C10.0055 9.08917 10.0317 9.07815 10.0543 9.06209C10.0769 9.04557 10.0957 9.02446 10.1086 8.99968L11.2437 6.86859Z" fill="white"/>
<path d="M64.8927 5.80011C66.0724 5.80011 67.1664 6.09502 68.1748 6.68484C69.1832 7.25563 69.9728 8.04522 70.5436 9.05362C71.1334 10.062 71.4283 11.156 71.4283 12.3357C71.4283 13.5153 71.1334 14.6093 70.5436 15.6177C69.9728 16.6071 69.1832 17.3967 68.1748 17.9865C67.1664 18.5763 66.0724 18.8712 64.8927 18.8712H61.3538V25.7778H57.6152V5.80011H64.8927ZM64.8927 15.3038C65.7109 15.3038 66.4053 15.0184 66.9761 14.4476C67.5659 13.8578 67.8609 13.1538 67.8609 12.3357C67.8609 11.5175 67.5659 10.8136 66.9761 10.2237C66.4053 9.63392 65.7109 9.33901 64.8927 9.33901H61.3538V15.3038H64.8927ZM79.7019 26.1773C78.351 26.1773 77.0952 25.8444 75.9346 25.1784C74.7931 24.4935 73.8798 23.5802 73.1948 22.4386C72.5289 21.278 72.196 20.0223 72.196 18.6714C72.196 17.3206 72.5289 16.0743 73.1948 14.9328C73.8798 13.7721 74.7931 12.8589 75.9346 12.193C77.0952 11.508 78.351 11.1655 79.7019 11.1655C81.0527 11.1655 82.299 11.508 83.4405 12.193C84.6011 12.8589 85.5144 13.7721 86.1803 14.9328C86.8653 16.0743 87.2077 17.3206 87.2077 18.6714C87.2077 20.0223 86.8653 21.278 86.1803 22.4386C85.5144 23.5802 84.6011 24.4935 83.4405 25.1784C82.299 25.8444 81.0527 26.1773 79.7019 26.1773ZM79.6733 22.6384C80.3963 22.6384 81.0622 22.4672 81.6711 22.1247C82.2799 21.7632 82.7651 21.278 83.1266 20.6692C83.4881 20.0604 83.6688 19.3944 83.6688 18.6714C83.6688 17.9484 83.4881 17.2825 83.1266 16.6737C82.7651 16.0648 82.2799 15.5797 81.6711 15.2182C81.0622 14.8567 80.3963 14.6759 79.6733 14.6759C78.9503 14.6759 78.2844 14.8567 77.6756 15.2182C77.0667 15.5797 76.5815 16.0648 76.22 16.6737C75.8776 17.2825 75.7063 17.9484 75.7063 18.6714C75.7063 19.3944 75.8776 20.0604 76.22 20.6692C76.5815 21.278 77.0667 21.7632 77.6756 22.1247C78.2844 22.4672 78.9503 22.6384 79.6733 22.6384ZM93.0055 21.7537C93.0055 22.0581 93.0816 22.2769 93.2338 22.4101C93.386 22.5433 93.6239 22.6099 93.9473 22.6099C94.1947 22.6099 94.4896 22.5813 94.832 22.5243V25.7778C94.1281 25.8919 93.4716 25.949 92.8628 25.949C91.7593 25.949 90.9126 25.6636 90.3228 25.0928C89.752 24.503 89.4666 23.4661 89.4666 21.982V5.80011H93.0055V21.7537ZM99.3477 9.13924C98.6818 9.13924 98.1586 8.95849 97.7781 8.59698C97.3975 8.23548 97.2073 7.7408 97.2073 7.11293C97.2073 6.46603 97.3975 5.96184 97.7781 5.60034C98.1586 5.23884 98.6818 5.05809 99.3477 5.05809C100.014 5.05809 100.537 5.23884 100.917 5.60034C101.298 5.96184 101.488 6.46603 101.488 7.11293C101.488 7.72177 101.288 8.21646 100.889 8.59698C100.508 8.95849 99.9946 9.13924 99.3477 9.13924ZM97.5498 25.7778V11.508H101.089V25.7778H97.5498ZM109.733 20.8975C109.733 21.5444 109.885 21.9915 110.189 22.2389C110.494 22.4862 110.979 22.6099 111.645 22.6099C112.044 22.6099 112.482 22.5813 112.958 22.5243V25.7778C112.064 25.8729 111.321 25.9205 110.732 25.9205C109.21 25.9205 108.068 25.578 107.307 24.893C106.565 24.1891 106.194 22.9333 106.194 21.1258V14.6759H103.511V11.508H106.194V7.99766L109.733 6.799V11.508H112.901V14.6759H109.733V20.8975ZM117.631 9.13924C116.965 9.13924 116.442 8.95849 116.061 8.59698C115.681 8.23548 115.49 7.7408 115.49 7.11293C115.49 6.46603 115.681 5.96184 116.061 5.60034C116.442 5.23884 116.965 5.05809 117.631 5.05809C118.297 5.05809 118.82 5.23884 119.201 5.60034C119.581 5.96184 119.771 6.46603 119.771 7.11293C119.771 7.72177 119.572 8.21646 119.172 8.59698C118.791 8.95849 118.278 9.13924 117.631 9.13924ZM115.833 25.7778V11.508H119.372V25.7778H115.833ZM135.168 23.0094C134.464 23.9798 133.579 24.7503 132.514 25.3211C131.449 25.8919 130.297 26.1773 129.061 26.1773C127.71 26.1773 126.454 25.8444 125.294 25.1784C124.152 24.4935 123.239 23.5802 122.554 22.4386C121.888 21.278 121.555 20.0223 121.555 18.6714C121.555 17.3206 121.888 16.0743 122.554 14.9328C123.239 13.7721 124.152 12.8589 125.294 12.193C126.454 11.508 127.71 11.1655 129.061 11.1655C130.278 11.1655 131.42 11.4509 132.485 12.0217C133.551 12.5735 134.436 13.325 135.14 14.2763L132.229 16.2456C131.334 15.1991 130.278 14.6759 129.061 14.6759C128.338 14.6759 127.672 14.8567 127.063 15.2182C126.454 15.5797 125.969 16.0648 125.607 16.6737C125.246 17.2825 125.065 17.9484 125.065 18.6714C125.065 19.3944 125.246 20.0604 125.607 20.6692C125.969 21.278 126.454 21.7632 127.063 22.1247C127.672 22.4672 128.338 22.6384 129.061 22.6384C130.278 22.6384 131.334 22.1152 132.229 21.0688L135.168 23.0094ZM139.091 9.13924C138.425 9.13924 137.902 8.95849 137.522 8.59698C137.141 8.23548 136.951 7.7408 136.951 7.11293C136.951 6.46603 137.141 5.96184 137.522 5.60034C137.902 5.23884 138.425 5.05809 139.091 5.05809C139.757 5.05809 140.28 5.23884 140.661 5.60034C141.041 5.96184 141.232 6.46603 141.232 7.11293C141.232 7.72177 141.032 8.21646 140.632 8.59698C140.252 8.95849 139.738 9.13924 139.091 9.13924ZM137.293 25.7778V11.508H140.832V25.7778H137.293ZM155.559 11.508H159.098V25.7778H155.559V24.3793C154.893 24.9501 154.161 25.3972 153.362 25.7207C152.582 26.0251 151.754 26.1773 150.879 26.1773C149.433 26.1773 148.167 25.8539 147.083 25.207C145.998 24.5601 145.161 23.6658 144.571 22.5243C144.001 21.3827 143.715 20.0984 143.715 18.6714C143.715 17.2445 144.001 15.9602 144.571 14.8186C145.161 13.677 145.998 12.7828 147.083 12.1359C148.167 11.47 149.433 11.137 150.879 11.137C151.754 11.137 152.582 11.2987 153.362 11.6222C154.161 11.9266 154.893 12.3642 155.559 12.935V11.508ZM151.335 22.7811C152.115 22.7811 152.819 22.6099 153.447 22.2674C154.094 21.9059 154.598 21.4112 154.96 20.7834C155.34 20.1555 155.531 19.442 155.531 18.6429C155.531 17.4442 155.122 16.4644 154.303 15.7033C153.504 14.9423 152.515 14.5617 151.335 14.5617C150.137 14.5617 149.147 14.9518 148.367 15.7319C147.606 16.4929 147.226 17.4728 147.226 18.6714C147.226 19.8701 147.606 20.8595 148.367 21.6395C149.147 22.4006 150.137 22.7811 151.335 22.7811ZM169.987 11.137C170.825 11.137 171.671 11.3178 172.528 11.6793C173.403 12.0217 174.145 12.6496 174.754 13.5629C175.381 14.4761 175.695 15.7033 175.695 17.2445V25.7778H172.156V17.2445C172.156 16.179 171.852 15.4179 171.243 14.9613C170.653 14.4856 169.959 14.2478 169.16 14.2478C168.361 14.2478 167.676 14.5332 167.105 15.104C166.553 15.6558 166.277 16.55 166.277 17.7867V25.7778H162.738V11.508H166.277V12.7067C166.791 12.231 167.362 11.8505 167.99 11.5651C168.618 11.2797 169.284 11.137 169.987 11.137ZM196.789 15.7604L203.267 25.7778H198.815L194.192 18.6144L189.568 25.7778H185.116L191.595 15.7604L185.145 5.80011H189.597L194.192 12.9065L198.787 5.80011H203.239L196.789 15.7604Z" fill="white"/>
</svg>
