<svg width="92" height="92" viewBox="0 0 92 92" fill="none" xmlns="http://www.w3.org/2000/svg">
<circle cx="46" cy="46" r="46" fill="#EAEEF9"/>
<g filter="url(#filter0_d_1112:24157)">
<path d="M76.6387 34.9535V65.1022C76.6387 65.2296 76.6387 65.2934 76.6387 65.4209C76.5747 67.1418 75.7438 68.6716 74.5293 69.6914C73.4427 70.6475 72.0365 71.2211 70.5025 71.2211H21.8604C20.7737 71.2211 19.815 70.9662 18.9201 70.4563C18.5366 70.2651 18.1531 70.0101 17.8335 69.6914C17.1304 69.1177 16.5551 68.3529 16.2355 67.4605C15.9798 66.8231 15.7881 66.1857 15.7881 65.4846V34.9535C15.7881 34.9535 18.3448 32.7864 21.9882 29.7906C25.7594 26.6037 30.7451 22.5244 35.0915 18.8912C37.5844 16.7878 37.3287 17.0428 41.1638 13.7921C44.1041 11.3063 48.3866 11.3063 51.3269 13.7921C52.0939 14.4295 52.8609 15.1306 53.6279 15.768C55.2259 17.0428 57.0156 18.5725 58.8693 20.1023C62.7683 23.353 67.0509 26.9224 70.4386 29.7269C73.8902 32.5952 76.383 34.6986 76.6387 34.9535Z" fill="#AE3E4B" fill-opacity="0.01"/>
</g>
<path d="M76.6387 34.9535V65.1022C76.6387 65.2296 76.6387 65.2934 76.6387 65.4209C76.5747 67.1418 75.7438 68.6716 74.5293 69.6914C73.4427 70.6475 72.0365 71.2211 70.5025 71.2211H21.8604C20.7737 71.2211 19.815 70.9662 18.9201 70.4563C18.5366 70.2651 18.1531 70.0101 17.8335 69.6914C17.1304 69.1177 16.5551 68.3529 16.2355 67.4605C15.9798 66.8231 15.7881 66.1857 15.7881 65.4846V34.9535C15.7881 34.9535 18.3448 32.7864 21.9882 29.7906C25.7594 26.6037 30.7451 22.5244 35.0915 18.8912C37.5844 16.7878 37.3287 17.0428 41.1638 13.7921C44.1041 11.3063 48.3866 11.3063 51.3269 13.7921C52.0939 14.4295 52.8609 15.1306 53.6279 15.768C55.2259 17.0428 57.0156 18.5725 58.8693 20.1023C62.7683 23.353 67.0509 26.9224 70.4386 29.7269C73.8902 32.5952 76.383 34.6986 76.6387 34.9535Z" fill="#AE3E4B"/>
<g filter="url(#filter1_d_1112:24157)">
<path d="M68.3294 21.1224V40.1167L58.6137 45.9169L55.7374 47.6379L49.6012 51.271L46.7249 52.992L45.5104 53.6931L44.3599 52.992L41.6114 51.271L35.7948 47.6379L33.0463 45.9169L24.0977 40.3079V21.1224C24.0977 19.1465 25.6956 17.4893 27.741 17.4893H64.686C66.6675 17.4893 68.3294 19.1465 68.3294 21.1224Z" fill="white" fill-opacity="0.01"/>
<path d="M60.4033 31.5747H33.11C32.6626 31.5747 32.2791 31.1923 32.2791 30.6824C32.2791 30.1725 32.6626 29.79 33.11 29.79H60.4033C60.8507 29.79 61.2342 30.1725 61.2342 30.6824C61.2342 31.1923 60.8507 31.5747 60.4033 31.5747Z" fill="white" fill-opacity="0.01"/>
<path d="M60.4033 36.9283H33.11C32.6626 36.9283 32.2791 36.5458 32.2791 36.0359C32.2791 35.526 32.6626 35.1436 33.11 35.1436H60.4033C60.8507 35.1436 61.2342 35.526 61.2342 36.0359C61.2342 36.5458 60.8507 36.9283 60.4033 36.9283Z" fill="white" fill-opacity="0.01"/>
<path d="M60.4033 42.2827H33.11C32.6626 42.2827 32.2791 41.9003 32.2791 41.3904C32.2791 40.8805 32.6626 40.498 33.11 40.498H60.4033C60.8507 40.498 61.2342 40.8805 61.2342 41.3904C61.2342 41.9003 60.8507 42.2827 60.4033 42.2827Z" fill="white" fill-opacity="0.01"/>
<path d="M58.6136 45.917L55.7373 47.6379H35.7946L33.0461 45.917H33.1101H58.6136Z" fill="white" fill-opacity="0.01"/>
<path d="M49.6012 51.2715L46.7248 53.0562H44.3598L41.6113 51.2715H49.6012Z" fill="white" fill-opacity="0.01"/>
<path d="M54.5226 25.4556H39.0543C38.6069 25.4556 38.2234 25.0732 38.2234 24.5632C38.2234 24.0533 38.6069 23.6709 39.0543 23.6709H54.5226C54.9701 23.6709 55.3536 24.0533 55.3536 24.5632C55.3536 25.0732 54.9701 25.4556 54.5226 25.4556Z" fill="white" fill-opacity="0.01"/>
</g>
<path d="M68.3294 21.1224V40.1167L58.6137 45.9169L55.7374 47.6379L49.6012 51.271L46.7249 52.992L45.5104 53.6931L44.3599 52.992L41.6114 51.271L35.7948 47.6379L33.0463 45.9169L24.0977 40.3079V21.1224C24.0977 19.1465 25.6956 17.4893 27.741 17.4893H64.686C66.6675 17.4893 68.3294 19.1465 68.3294 21.1224Z" fill="white"/>
<path d="M60.4033 31.5747H33.11C32.6626 31.5747 32.2791 31.1923 32.2791 30.6824C32.2791 30.1725 32.6626 29.79 33.11 29.79H60.4033C60.8507 29.79 61.2342 30.1725 61.2342 30.6824C61.2342 31.1923 60.8507 31.5747 60.4033 31.5747Z" fill="#E7EBF2"/>
<path d="M60.4033 36.9283H33.11C32.6626 36.9283 32.2791 36.5458 32.2791 36.0359C32.2791 35.526 32.6626 35.1436 33.11 35.1436H60.4033C60.8507 35.1436 61.2342 35.526 61.2342 36.0359C61.2342 36.5458 60.8507 36.9283 60.4033 36.9283Z" fill="#E7EBF2"/>
<path d="M60.4033 42.2827H33.11C32.6626 42.2827 32.2791 41.9003 32.2791 41.3904C32.2791 40.8805 32.6626 40.498 33.11 40.498H60.4033C60.8507 40.498 61.2342 40.8805 61.2342 41.3904C61.2342 41.9003 60.8507 42.2827 60.4033 42.2827Z" fill="#E7EBF2"/>
<path d="M58.6136 45.917L55.7373 47.6379H35.7946L33.0461 45.917H33.1101H58.6136Z" fill="#E7EBF2"/>
<path d="M49.6012 51.2715L46.7248 53.0562H44.3598L41.6113 51.2715H49.6012Z" fill="#E7EBF2"/>
<path d="M54.5226 25.4556H39.0543C38.6069 25.4556 38.2234 25.0732 38.2234 24.5632C38.2234 24.0533 38.6069 23.6709 39.0543 23.6709H54.5226C54.9701 23.6709 55.3536 24.0533 55.3536 24.5632C55.3536 25.0732 54.9701 25.4556 54.5226 25.4556Z" fill="#FF344C"/>
<path opacity="0.67" d="M16.0437 34.8262L45.2545 36.7383L76.1912 34.8262L75.0406 40.3715C75.0406 40.3715 45.9576 55.5414 46.1494 55.5414C46.3412 55.5414 16.1076 37.567 16.1076 37.567L16.0437 34.8262Z" fill="url(#paint0_linear_1112:24157)"/>
<path d="M70.5664 71.6114C72.1004 71.6114 73.5067 71.0377 74.5933 70.0816L74.5553 70.06C75.7558 69.0402 76.5755 67.5199 76.6389 65.8111V35.3438L73.443 37.1922L46.9807 52.872L46.2137 53.3182L46.1607 53.3507L18.984 37.2559L15.7881 35.3438V65.8748C15.7881 66.576 15.9798 67.2134 16.2355 67.8508C16.5551 68.7431 17.1304 69.508 17.8335 70.0816C18.1531 70.4003 18.5366 70.6553 18.9201 70.8465C19.7031 71.2927 20.535 71.5436 21.4587 71.5994C21.5907 71.6074 21.7245 71.6114 21.8604 71.6114C21.8605 71.6114 21.8603 71.6114 21.8604 71.6114H70.5664Z" fill="#FF344C"/>
<path d="M72.6755 70.5833L74.6569 69.5635C74.593 69.6272 74.593 69.6272 74.5291 69.691C74.5291 69.691 74.5291 69.691 74.4652 69.691L72.6755 70.5833Z" fill="#526DFF"/>
<defs>
<filter id="filter0_d_1112:24157" x="10.8693" y="10.0832" width="70.6882" height="69.1306" filterUnits="userSpaceOnUse" color-interpolation-filters="sRGB">
<feFlood flood-opacity="0" result="BackgroundImageFix"/>
<feColorMatrix in="SourceAlpha" type="matrix" values="0 0 0 0 0 0 0 0 0 0 0 0 0 0 0 0 0 0 127 0" result="hardAlpha"/>
<feOffset dy="3.07426"/>
<feGaussianBlur stdDeviation="2.45941"/>
<feColorMatrix type="matrix" values="0 0 0 0 1 0 0 0 0 0.203922 0 0 0 0 0.298039 0 0 0 0.15 0"/>
<feBlend mode="normal" in2="BackgroundImageFix" result="effect1_dropShadow_1112:24157"/>
<feBlend mode="normal" in="SourceGraphic" in2="effect1_dropShadow_1112:24157" result="shape"/>
</filter>
<filter id="filter1_d_1112:24157" x="17.4622" y="10.8538" width="57.5025" height="49.4749" filterUnits="userSpaceOnUse" color-interpolation-filters="sRGB">
<feFlood flood-opacity="0" result="BackgroundImageFix"/>
<feColorMatrix in="SourceAlpha" type="matrix" values="0 0 0 0 0 0 0 0 0 0 0 0 0 0 0 0 0 0 127 0" result="hardAlpha"/>
<feOffset/>
<feGaussianBlur stdDeviation="3.31771"/>
<feComposite in2="hardAlpha" operator="out"/>
<feColorMatrix type="matrix" values="0 0 0 0 0.294118 0 0 0 0 0.447059 0 0 0 0 0.972549 0 0 0 0.17 0"/>
<feBlend mode="normal" in2="BackgroundImageFix" result="effect1_dropShadow_1112:24157"/>
<feBlend mode="normal" in="SourceGraphic" in2="effect1_dropShadow_1112:24157" result="shape"/>
</filter>
<linearGradient id="paint0_linear_1112:24157" x1="46.0806" y1="62.0651" x2="46.0806" y2="36.1979" gradientUnits="userSpaceOnUse">
<stop stop-color="#FF344C" stop-opacity="0.24"/>
<stop offset="1" stop-color="white" stop-opacity="0"/>
</linearGradient>
</defs>
</svg>
